 http://www.imdb.com/title/tt1351685/



The ancient war between humans and a race of giants is reignited when Jack, a young farmhand fighting for a kingdom and the love of a princess, opens a gateway between the two worlds. 



Director:
 Bryan Singer 

Writers:
 Darren Lemke (screenplay), Christopher McQuarrie (screenplay)

Stars:
 Nicholas Hoult, Ewan McGregor, Stanley Tucci 

Genres:
  Adventure |  Fantasy 

Country:
 USA 

Language:
 English 


Format                                   : AVI
Format/Info                              : Audio Video Interleave
Format profile                           : OpenDML
File size                                : 698 MiB
Duration                                 : 1h 54mn
Overall bit rate                         : 854 Kbps
Writing application                      : AVI-Mux GUI 1.16.11, Dec 15 2004  14:51:34

Video
ID                                       : 0
Format                                   : MPEG-4 Visual
Format profile                           : Advanced Simple@L5
Format settings, BVOP                    : No
Format settings, QPel                    : No
Format settings, GMC                     : No warppoints
Format settings, Matrix                  : Default (H.263)
Codec ID                                 : XVID
Codec ID/Hint                            : XviD
Duration                                 : 1h 54mn
Bit rate                                 : 718 Kbps
Width                                    : 640 pixels
Height                                   : 272 pixels
Display aspect ratio                     : 2.35:1
Frame rate                               : 23.976 fps
Color space                              : YUV
Chroma subsampling                       : 4:2:0
Bit depth                                : 8 bits
Scan type                                : Progressive
Compression mode                         : Lossy
Bits/(Pixel*Frame)                       : 0.172
Stream size                              : 587 MiB (84%)
Writing library                          : XviD 1.2.1 (UTC 2008-12-04)

Audio
ID                                       : 1
Format                                   : MPEG Audio
Format version                           : Version 1
Format profile                           : Layer 3
Mode                                     : Joint stereo
Mode extension                           : MS Stereo
Codec ID                                 : 55
Codec ID/Hint                            : MP3
Duration                                 : 1h 54mn
Bit rate mode                            : Constant
Bit rate                                 : 128 Kbps
Channel(s)                               : 2 channels
Sampling rate                            : 44.1 KHz
Compression mode                         : Lossy
Stream size                              : 105 MiB (15%)
Alignment                                : Aligned on interleaves
Interleave, duration                     : 26 ms (0.63 video frame)
Interleave, preload duration             : 182 ms
Title                                    : English - 3LT0N
Writing library                          : LAME3.92






screens


    	http://addpix.net/viewer.php?file=62767386212732760426.jpg
    	http://addpix.net/viewer.php?file=91589058857330300102.jpg
    	http://addpix.net/viewer.php?file=10588431022800978522.jpg
    	http://addpix.net/viewer.php?file=86840116306257716053.jpg
    	http://addpix.net/viewer.php?file=62690517842881516476.jpg